<?xml version="1.0" encoding="utf-8"?>
<!-- Generator: Adobe Illustrator 24.3.0, SVG Export Plug-In . SVG Version: 6.00 Build 0)  -->
<svg version="1.1" id="Layer_1" focusable="false" xmlns="http://www.w3.org/2000/svg" xmlns:xlink="http://www.w3.org/1999/xlink"
	 x="0px" y="0px" viewBox="0 0 272 512" style="enable-background:new 0 0 272 512;" xml:space="preserve">
<path d="M272,304c0-29.7-16.3-55.3-40.3-69.1c5.2-10.6,8.3-22.3,8.3-34.9c0-33.4-20.5-62-49.7-74c1-4.5,1.7-9.2,1.7-14
	c0-35.3-28.7-64-64-64c-0.8,0-1.5,0.2-2.2,0.2C118.7,20.5,93.9,0,64,0C28.7,0,0,28.6,0,64v376c0,39.8,32.2,72,72,72
	c31.8,0,58.4-20.7,68-49.2c3.9,0.7,7.9,1.2,12,1.2c39.8,0,72-32.2,72-72c0-4.8-0.5-9.5-1.4-14.1C251.6,365.9,272,337.3,272,304z"/>
</svg>
