<?xml version="1.0" encoding="utf-8"?>
<!-- Generator: Adobe Illustrator 24.3.0, SVG Export Plug-In . SVG Version: 6.00 Build 0)  -->
<svg version="1.1" id="Layer_1" focusable="false" xmlns="http://www.w3.org/2000/svg" xmlns:xlink="http://www.w3.org/1999/xlink"
	 x="0px" y="0px" viewBox="0 0 272 512" style="enable-background:new 0 0 272 512;" xml:space="preserve">
<path id="curve" d="M208,0c-29.9,0-54.7,20.5-61.8,48.2c-0.8,0-1.4-0.2-2.2-0.2c-35.3,0-64,28.7-64,64c0,4.8,0.6,9.5,1.7,14
	C52.5,138,32,166.6,32,200c0,12.6,3.2,24.3,8.3,34.9C16.3,248.7,0,274.3,0,304c0,33.3,20.4,61.9,49.4,73.9
	c-0.9,4.6-1.4,9.3-1.4,14.1c0,39.8,32.2,72,72,72c4.1,0,8.1-0.5,12-1.2c9.6,28.5,36.2,49.2,68,49.2c39.8,0,72-32.2,72-72V64
	C272,28.7,243.3,0,208,0z"/>
<text >
    <textPath fill="#000" href="#curve">
      Dangerous Curves Ahead
    </textPath>
  </text>
</svg>
