<?xml version="1.0" encoding="UTF-8" standalone="no"?>
<!-- Generator: Adobe Illustrator 19.0.0, SVG Export Plug-In . SVG Version: 6.00 Build 0)  -->

<svg
   xmlns:dc="http://purl.org/dc/elements/1.1/"
   xmlns:cc="http://creativecommons.org/ns#"
   xmlns:rdf="http://www.w3.org/1999/02/22-rdf-syntax-ns#"
   xmlns:svg="http://www.w3.org/2000/svg"
   xmlns="http://www.w3.org/2000/svg"
   xmlns:sodipodi="http://sodipodi.sourceforge.net/DTD/sodipodi-0.dtd"
   xmlns:inkscape="http://www.inkscape.org/namespaces/inkscape"
   version="1.1"
   id="Layer_1"
   x="0px"
   y="0px"
   viewBox="0 0 236 236"
   style="enable-background:new 0 0 236 236;"
   xml:space="preserve"
   sodipodi:docname="laptop.svg"
   inkscape:version="0.92.5 (2060ec1f9f, 2020-04-08)"><metadata
   id="metadata4622"><rdf:RDF><cc:Work
       rdf:about=""><dc:format>image/svg+xml</dc:format><dc:type
         rdf:resource="http://purl.org/dc/dcmitype/StillImage" /></cc:Work></rdf:RDF></metadata><defs
   id="defs4620">
		
	
			
			
			
			
			
		</defs><sodipodi:namedview
   pagecolor="#ffffff"
   bordercolor="#666666"
   borderopacity="1"
   objecttolerance="10"
   gridtolerance="10"
   guidetolerance="10"
   inkscape:pageopacity="0"
   inkscape:pageshadow="2"
   inkscape:window-width="3840"
   inkscape:window-height="2004"
   id="namedview4618"
   showgrid="false"
   inkscape:zoom="7.1059322"
   inkscape:cx="122.92546"
   inkscape:cy="118"
   inkscape:window-x="-16"
   inkscape:window-y="-16"
   inkscape:window-maximized="1"
   inkscape:current-layer="g4585" />
<g
   id="g4585">
	<path
   d="M 235.795,192.734 220,145.349 V 42 c 0,-2.211 -1.791,-4 -4,-4 H 24 c -2.209,0 -4,1.789 -4,4 V 145.202 L 0.309,192.461 c -0.516,1.234 -0.379,2.644 0.363,3.758 C 1.414,197.333 2.662,198 4,198 h 228 c 1.285,0 2.492,-0.617 3.244,-1.66 0.752,-1.043 0.957,-2.387 0.551,-3.606 z M 28,46 h 184 v 96 H 28 Z M 10,190 26.666,150 h 186.451 l 13.334,40 z"
   id="path4571"
   inkscape:connector-curvature="0" /><rect
   x="84"
   y="178"
   width="68"
   height="8"
   id="rect4573" /><rect
   x="160"
   y="178"
   width="20"
   height="8"
   id="rect4575" /><rect
   x="56"
   y="178"
   width="20"
   height="8"
   id="rect4577" />
</g>
<g
   id="g4587">
</g>
<g
   id="g4589">
</g>
<g
   id="g4591">
</g>
<g
   id="g4593">
</g>
<g
   id="g4595">
</g>
<g
   id="g4597">
</g>
<g
   id="g4599">
</g>
<g
   id="g4601">
</g>
<g
   id="g4603">
</g>
<g
   id="g4605">
</g>
<g
   id="g4607">
</g>
<g
   id="g4609">
</g>
<g
   id="g4611">
</g>
<g
   id="g4613">
</g>
<g
   id="g4615">
</g>
</svg>