<?xml version="1.0" encoding="utf-8"?>
<!-- Generator: Adobe Illustrator 24.3.0, SVG Export Plug-In . SVG Version: 6.00 Build 0)  -->
<svg version="1.1"
	 id="Layer_1" xmlns:cc="http://creativecommons.org/ns#" xmlns:dc="http://purl.org/dc/elements/1.1/" xmlns:inkscape="http://www.inkscape.org/namespaces/inkscape" xmlns:rdf="http://www.w3.org/1999/02/22-rdf-syntax-ns#" xmlns:sodipodi="http://sodipodi.sourceforge.net/DTD/sodipodi-0.dtd" xmlns:svg="http://www.w3.org/2000/svg"
	 xmlns="http://www.w3.org/2000/svg" xmlns:xlink="http://www.w3.org/1999/xlink" x="0px" y="0px" viewBox="0 0 236 236"
	 style="enable-background:new 0 0 236 236;" xml:space="preserve">
<style type="text/css">
	.st0{fill:#1D1D1B;}
	.st1{fill:#FFFFFF;}
</style>
<polygon class="st0" points="26.7,150 213.1,150 226.5,190 10,190 "/>
<sodipodi:namedview  bordercolor="#666666" borderopacity="1" gridtolerance="10" guidetolerance="10" id="namedview4618" inkscape:current-layer="g4585" inkscape:cx="122.92546" inkscape:cy="118" inkscape:pageopacity="0" inkscape:pageshadow="2" inkscape:window-height="2004" inkscape:window-maximized="1" inkscape:window-width="3840" inkscape:window-x="-16" inkscape:window-y="-16" inkscape:zoom="7.1059322" objecttolerance="10" pagecolor="#ffffff" showgrid="false">
	</sodipodi:namedview>
<g id="g4585">
	<path id="path4571" inkscape:connector-curvature="0" d="M235.8,192.7L220,145.3V42c0-2.2-1.8-4-4-4H24c-2.2,0-4,1.8-4,4v103.2
		L0.3,192.5c-0.5,1.2-0.4,2.6,0.4,3.8s2,1.8,3.3,1.8h228c1.3,0,2.5-0.6,3.2-1.7S236.2,194,235.8,192.7z M28,46h184v96H28V46z
		 M10,190l16.7-40h186.5l13.3,40H10z"/>
	<rect id="rect4573" x="84" y="178" class="st1" width="68" height="8"/>
	<rect id="rect4575" x="160" y="178" class="st1" width="20" height="8"/>
	<rect id="rect4577" x="56" y="178" class="st1" width="20" height="8"/>
</g>
<g id="g4587">
</g>
<g id="g4589">
</g>
<g id="g4591">
</g>
<g id="g4593">
</g>
<g id="g4595">
</g>
<g id="g4597">
</g>
<g id="g4599">
</g>
<g id="g4601">
</g>
<g id="g4603">
</g>
<g id="g4605">
</g>
<g id="g4607">
</g>
<g id="g4609">
</g>
<g id="g4611">
</g>
<g id="g4613">
</g>
<g id="g4615">
</g>
</svg>
