<svg xmlns="http://www.w3.org/2000/svg" width="233.744" height="58.959" viewBox="0 0 233.744 58.959" class="public-page-wrapper__logo"><path d="M232.563 11.797h-14.431V22.12a35.984 35.984 0 001.074 9.886 14.769 14.769 0 004.083 6.5 21.043 21.043 0 007.627 4.52l2.825-5.958a12.155 12.155 0 01-6.214-3.955 11.893 11.893 0 01-1.952-6.882h6.985z" fill="#0055e6"></path><path d="M.185.005H29.19v8.75H9.711v8.75h18.01v8.75H9.711v16.771H.185zM31.297 0h9.16v43.022h-9.16zM42.539 27.41a15.589 15.589 0 011.286-6.429 14.8 14.8 0 013.521-4.929 15.547 15.547 0 015.265-3.153 18.755 18.755 0 016.459-1.1 18.755 18.755 0 016.459 1.1 15.547 15.547 0 015.265 3.153 14.8 14.8 0 013.521 4.929 15.589 15.589 0 011.286 6.429 15.589 15.589 0 01-1.286 6.429 14.8 14.8 0 01-3.521 4.929 15.547 15.547 0 01-5.265 3.153 18.755 18.755 0 01-6.459 1.1 18.755 18.755 0 01-6.459-1.1 15.547 15.547 0 01-5.265-3.153 14.8 14.8 0 01-3.521-4.929 15.589 15.589 0 01-1.286-6.429zm9.184 0a7.7 7.7 0 001.929 5.449 7.02 7.02 0 005.419 2.082 7.02 7.02 0 005.419-2.082 7.7 7.7 0 001.929-5.449 7.7 7.7 0 00-1.93-5.449 7.02 7.02 0 00-5.419-2.082 7.02 7.02 0 00-5.419 2.082 7.7 7.7 0 00-1.928 5.449z" fill="#ff1717"></path><path d="M159.323 27.41a15.589 15.589 0 011.286-6.429 14.8 14.8 0 013.521-4.929 15.547 15.547 0 015.265-3.153 18.755 18.755 0 016.459-1.1 18.755 18.755 0 016.459 1.1 15.547 15.547 0 015.265 3.153 14.8 14.8 0 013.521 4.929 15.589 15.589 0 011.286 6.429 15.589 15.589 0 01-1.286 6.429 14.8 14.8 0 01-3.521 4.929 15.547 15.547 0 01-5.265 3.153 18.755 18.755 0 01-6.459 1.1 18.755 18.755 0 01-6.459-1.1 15.547 15.547 0 01-5.265-3.153 14.8 14.8 0 01-3.521-4.929 15.589 15.589 0 01-1.286-6.429zm9.184 0a7.7 7.7 0 001.929 5.449 7.02 7.02 0 005.419 2.082 7.02 7.02 0 005.419-2.082 7.7 7.7 0 001.929-5.449 7.7 7.7 0 00-1.93-5.449 7.02 7.02 0 00-5.419-2.082 7.02 7.02 0 00-5.419 2.082 7.7 7.7 0 00-1.928 5.449zM125.828 43.023h-25.422a27.537 27.537 0 01-9.1-1.452 20.321 20.321 0 01-7.2-4.237 19.7 19.7 0 01-4.737-6.755 22.629 22.629 0 01-1.719-9.067 21.379 21.379 0 011.748-8.711 20.688 20.688 0 014.771-6.812 21.5 21.5 0 017.111-4.415 24.252 24.252 0 018.77-1.57 23.853 23.853 0 018.77 1.6 21.894 21.894 0 017.111 4.444 20.77 20.77 0 014.77 6.785 21.172 21.172 0 011.748 8.681 19.019 19.019 0 01-.5 4.385 16.759 16.759 0 01-1.511 4.03 13.149 13.149 0 01-2.607 3.407 13.181 13.181 0 01-3.736 2.453v.119h11.733zM87.25 21.512a12.893 12.893 0 001.007 5.1 12.886 12.886 0 002.756 4.119 13.07 13.07 0 004.059 2.756 12.32 12.32 0 004.978 1.002 12.32 12.32 0 004.978-1.007 13.07 13.07 0 004.059-2.756 12.886 12.886 0 002.756-4.119 12.893 12.893 0 001.007-5.1 12.893 12.893 0 00-1.007-5.1 12.886 12.886 0 00-2.756-4.119 13.07 13.07 0 00-4.059-2.756 12.32 12.32 0 00-4.978-1.007 12.32 12.32 0 00-4.978 1.007 13.07 13.07 0 00-4.059 2.756 12.886 12.886 0 00-2.755 4.128 12.892 12.892 0 00-1.008 5.096zM157.22 43.023h-9.016v-4.891h-.125a10.411 10.411 0 01-1.285 1.756 8.435 8.435 0 01-1.912 1.568 11.114 11.114 0 01-2.571 1.129 10.723 10.723 0 01-3.135.439 13.162 13.162 0 01-5.8-1.1 8.3 8.3 0 01-3.451-3.04 11.92 11.92 0 01-1.63-4.577 37.379 37.379 0 01-.408-5.706v-16.8h9.405v14.923q0 1.317.094 2.728a8.6 8.6 0 00.564 2.6 4.491 4.491 0 001.442 1.944 4.48 4.48 0 002.79.752 5.806 5.806 0 002.947-.658 4.487 4.487 0 001.724-1.756 7.177 7.177 0 00.784-2.477 21.343 21.343 0 00.188-2.884V11.797h9.405zM215.952 18.825h-8.06v9.722a22.4 22.4 0 00.122 2.446 5.274 5.274 0 00.55 1.91 2.871 2.871 0 001.313 1.24 5.365 5.365 0 002.351.436 14.457 14.457 0 001.924-.168 3.107 3.107 0 001.8-.771v8.377a12.833 12.833 0 01-3.175.8 26.727 26.727 0 01-3.236.2 16.121 16.121 0 01-4.274-.536 9.369 9.369 0 01-3.425-1.704 7.886 7.886 0 01-2.29-3.049 11.3 11.3 0 01-.824-4.557V18.825h-5.858v-7.029h5.862v-11.8h9.16v11.8h8.06z" fill="#0055e6"></path><path class="floquote-logo_svg__text" d="M4.918 47.613a2.005 2.005 0 00-1.768-.891 2.64 2.64 0 00-.71.1 1.955 1.955 0 00-.626.3 1.482 1.482 0 00-.445.516 1.561 1.561 0 00-.168.742 1.286 1.286 0 00.349.962 2.758 2.758 0 00.865.561 9.6 9.6 0 001.129.394 5.186 5.186 0 011.129.465 2.692 2.692 0 01.865.768 2.17 2.17 0 01.349 1.3 2.338 2.338 0 01-.266 1.114 2.567 2.567 0 01-.7.833 3.272 3.272 0 01-.968.516 3.353 3.353 0 01-1.078.181 4.085 4.085 0 01-1.594-.316A3.034 3.034 0 010 54.118l.852-.607a2.216 2.216 0 00.823.807 2.462 2.462 0 001.248.3 2.3 2.3 0 00.695-.11 2 2 0 00.624-.323 1.784 1.784 0 00.457-.523 1.386 1.386 0 00.18-.71 1.459 1.459 0 00-.2-.794 1.725 1.725 0 00-.529-.524 3.347 3.347 0 00-.749-.355q-.419-.142-.865-.284t-.865-.323a2.985 2.985 0 01-.749-.458 2.053 2.053 0 01-.529-.7 2.44 2.44 0 01-.2-1.052 2.484 2.484 0 01.252-1.149 2.382 2.382 0 01.671-.813 2.856 2.856 0 01.949-.478 3.84 3.84 0 011.084-.155 3.863 3.863 0 011.407.245 3.033 3.033 0 011.175.865zm6.042 4.621q-.323 0-.807.032a4.659 4.659 0 00-.929.155 2.046 2.046 0 00-.762.381.867.867 0 00-.316.71 1 1 0 00.123.51 1.021 1.021 0 00.329.349 1.4 1.4 0 00.458.194 2.26 2.26 0 00.51.058 1.942 1.942 0 00.807-.155 1.669 1.669 0 00.574-.42 1.677 1.677 0 00.342-.62 2.543 2.543 0 00.11-.755v-.439zm.439-.7v-.15a1.375 1.375 0 00-1.549-1.562 2.668 2.668 0 00-1.846.71l-.516-.607a3.409 3.409 0 012.556-.878 2.777 2.777 0 01.845.129 1.912 1.912 0 01.7.394 1.952 1.952 0 01.478.665 2.307 2.307 0 01.182.949v2.7q0 .349.032.729t.071.626h-.826q-.039-.219-.058-.478t-.019-.5h-.026a2.309 2.309 0 01-.884.871 2.679 2.679 0 01-1.246.265 2.739 2.739 0 01-.774-.11 1.976 1.976 0 01-.665-.336 1.706 1.706 0 01-.465-.555 1.618 1.618 0 01-.174-.768 1.655 1.655 0 01.381-1.155 2.329 2.329 0 01.955-.626 4.706 4.706 0 011.227-.263q.652-.052 1.194-.052zm5.55 3.7h-.955l-2.454-6.033h1.007l1.936 5.083h.026l1.923-5.086h.968zm8.325-3.485a1.933 1.933 0 00-.516-1.4 1.914 1.914 0 00-1.446-.536 2.061 2.061 0 00-.8.161 2.253 2.253 0 00-.678.432 2.169 2.169 0 00-.465.62 1.6 1.6 0 00-.174.723zm-4.1.7a2.592 2.592 0 00.219.852 2.251 2.251 0 00.478.691 2.247 2.247 0 00.684.458 2.087 2.087 0 00.839.168 2.153 2.153 0 001.181-.316 2.363 2.363 0 00.755-.729l.658.542a3.275 3.275 0 01-1.194.981 3.339 3.339 0 01-1.4.3 3.212 3.212 0 01-1.246-.239 2.918 2.918 0 01-.988-.664 3.149 3.149 0 01-.656-1.009 3.3 3.3 0 01-.239-1.265 3.375 3.375 0 01.232-1.265 3.062 3.062 0 01.645-1.007 2.968 2.968 0 01.968-.665 3 3 0 011.2-.239 2.944 2.944 0 011.226.245 2.721 2.721 0 01.91.652 2.79 2.79 0 01.561.955 3.484 3.484 0 01.194 1.168v.387zm13.419-2.474H32.85v3.563a1.934 1.934 0 00.065.549.774.774 0 00.181.329.623.623 0 00.278.161 1.314 1.314 0 00.355.045 1.685 1.685 0 00.452-.065 2.092 2.092 0 00.426-.168l.039.787a2.736 2.736 0 01-1.149.219 2.15 2.15 0 01-.51-.065 1.2 1.2 0 01-.484-.245 1.351 1.351 0 01-.361-.49 1.97 1.97 0 01-.142-.813v-3.807h-1.28v-.774h1.278v-1.7h.852v1.7h1.743zm2.465-3.1a.572.572 0 01-.194.445.623.623 0 01-.426.174.623.623 0 01-.426-.174.572.572 0 01-.194-.445.572.572 0 01.194-.445.623.623 0 01.426-.174.623.623 0 01.426.174.572.572 0 01.196.447zm-.198 8.366h-.852v-6.04h.852zm2.117-4.7q0-.336-.019-.671t-.045-.671h.916v.916h.031a2 2 0 01.858-.8 2.445 2.445 0 011.091-.271 2.864 2.864 0 01.523.052 1.891 1.891 0 01.536.187 1.8 1.8 0 01.484.381 2.043 2.043 0 01.381.632 1.989 1.989 0 01.82-.916 2.246 2.246 0 011.168-.336 2.2 2.2 0 011.717.613 2.517 2.517 0 01.555 1.749v3.834h-.852v-3.522a2.559 2.559 0 00-.323-1.407 1.332 1.332 0 00-1.2-.49 1.573 1.573 0 00-.8.187 1.522 1.522 0 00-.523.5 2.186 2.186 0 00-.29.7 3.653 3.653 0 00-.09.82v3.214h-.855v-3.524a2.559 2.559 0 00-.323-1.407 1.332 1.332 0 00-1.2-.49 2.652 2.652 0 00-.355.052 1.35 1.35 0 00-.574.284 2.068 2.068 0 00-.536.7 2.865 2.865 0 00-.239 1.291v3.1h-.852zm15.76 1.213a1.933 1.933 0 00-.516-1.4 1.914 1.914 0 00-1.446-.536 2.061 2.061 0 00-.8.161 2.253 2.253 0 00-.678.432 2.169 2.169 0 00-.465.62 1.6 1.6 0 00-.174.723zm-4.1.7a2.592 2.592 0 00.219.852 2.251 2.251 0 00.478.691 2.247 2.247 0 00.684.458 2.087 2.087 0 00.839.168 2.153 2.153 0 001.181-.316 2.363 2.363 0 00.755-.729l.658.542a3.275 3.275 0 01-1.194.981 3.339 3.339 0 01-1.4.3 3.212 3.212 0 01-1.246-.239 2.918 2.918 0 01-.987-.665 3.149 3.149 0 01-.652-1.013 3.3 3.3 0 01-.239-1.265 3.375 3.375 0 01.232-1.265 3.062 3.062 0 01.645-1.007 2.968 2.968 0 01.968-.665 3 3 0 011.2-.239 2.944 2.944 0 011.226.245 2.721 2.721 0 01.91.652 2.79 2.79 0 01.561.955 3.484 3.484 0 01.194 1.168v.387zm8.209 2.168a.7.7 0 01-.194.484.649.649 0 01-.5.213.649.649 0 01-.5-.213.7.7 0 01-.194-.484.7.7 0 01.194-.484.649.649 0 01.5-.213.649.649 0 01.5.213.7.7 0 01.194.484zm10.378-7.009a2.005 2.005 0 00-1.768-.891 2.64 2.64 0 00-.71.1 1.955 1.955 0 00-.626.3 1.482 1.482 0 00-.445.516 1.561 1.561 0 00-.168.742 1.286 1.286 0 00.349.962 2.758 2.758 0 00.865.561 9.6 9.6 0 001.129.394 5.185 5.185 0 011.129.465 2.692 2.692 0 01.865.768 2.17 2.17 0 01.349 1.3 2.338 2.338 0 01-.265 1.117 2.567 2.567 0 01-.7.833 3.272 3.272 0 01-.968.516 3.353 3.353 0 01-1.078.181 4.085 4.085 0 01-1.594-.316 3.034 3.034 0 01-1.284-1.039l.856-.61a2.216 2.216 0 00.823.807 2.462 2.462 0 001.248.3 2.3 2.3 0 00.695-.11 2 2 0 00.624-.323 1.784 1.784 0 00.457-.523 1.386 1.386 0 00.18-.71 1.459 1.459 0 00-.2-.794 1.725 1.725 0 00-.527-.525 3.347 3.347 0 00-.749-.355q-.419-.142-.865-.284t-.865-.323a2.985 2.985 0 01-.749-.458 2.053 2.053 0 01-.529-.7 2.44 2.44 0 01-.2-1.052 2.484 2.484 0 01.252-1.149 2.382 2.382 0 01.671-.813 2.856 2.856 0 01.949-.478 3.84 3.84 0 011.084-.155 3.863 3.863 0 011.407.245 3.033 3.033 0 011.175.865zm6.036 4.621q-.323 0-.807.032a4.659 4.659 0 00-.929.155 2.046 2.046 0 00-.762.381.867.867 0 00-.316.71 1 1 0 00.123.51 1.021 1.021 0 00.329.349 1.4 1.4 0 00.458.194 2.26 2.26 0 00.51.058 1.942 1.942 0 00.807-.155 1.669 1.669 0 00.574-.42 1.677 1.677 0 00.342-.62 2.544 2.544 0 00.11-.755v-.439zm.439-.7v-.15a1.375 1.375 0 00-1.549-1.562 2.668 2.668 0 00-1.846.71l-.516-.607a3.409 3.409 0 012.556-.878 2.777 2.777 0 01.845.129 1.912 1.912 0 01.7.394 1.952 1.952 0 01.478.665 2.307 2.307 0 01.193.949v2.7q0 .349.032.729t.071.626h-.826q-.039-.219-.058-.478t-.019-.5h-.026a2.309 2.309 0 01-.884.871 2.679 2.679 0 01-1.246.265 2.739 2.739 0 01-.774-.11 1.976 1.976 0 01-.67-.336 1.706 1.706 0 01-.465-.555 1.618 1.618 0 01-.174-.768 1.655 1.655 0 01.381-1.155 2.329 2.329 0 01.955-.626 4.706 4.706 0 011.227-.263q.652-.052 1.194-.052zm5.55 3.7h-.955l-2.448-6.033h1.007l1.936 5.083h.026l1.923-5.086h.968zm8.325-3.485a1.933 1.933 0 00-.516-1.4 1.914 1.914 0 00-1.446-.536 2.061 2.061 0 00-.8.161 2.253 2.253 0 00-.678.432 2.169 2.169 0 00-.465.62 1.6 1.6 0 00-.174.723zm-4.1.7a2.592 2.592 0 00.219.852 2.251 2.251 0 00.478.691 2.247 2.247 0 00.684.458 2.087 2.087 0 00.839.168 2.153 2.153 0 001.181-.316 2.363 2.363 0 00.755-.729l.658.542a3.275 3.275 0 01-1.194.981 3.339 3.339 0 01-1.4.3 3.212 3.212 0 01-1.246-.239 2.918 2.918 0 01-.987-.665 3.149 3.149 0 01-.651-1.008 3.3 3.3 0 01-.239-1.265 3.375 3.375 0 01.232-1.265 3.063 3.063 0 01.645-1.007 2.968 2.968 0 01.968-.665 3 3 0 011.2-.239 2.944 2.944 0 011.226.245 2.721 2.721 0 01.91.652 2.79 2.79 0 01.561.955 3.484 3.484 0 01.194 1.168v.387zm10.3-1.91q0-.336-.019-.671t-.045-.671h.916v.916h.026a2 2 0 01.858-.8 2.445 2.445 0 011.091-.271 2.864 2.864 0 01.523.052 1.891 1.891 0 01.536.187 1.8 1.8 0 01.484.381 2.043 2.043 0 01.381.632 1.989 1.989 0 01.82-.916 2.246 2.246 0 011.168-.336 2.2 2.2 0 011.717.613 2.517 2.517 0 01.555 1.749v3.834h-.852v-3.52a2.559 2.559 0 00-.323-1.407 1.332 1.332 0 00-1.2-.49 1.573 1.573 0 00-.8.187 1.522 1.522 0 00-.523.5 2.186 2.186 0 00-.29.7 3.653 3.653 0 00-.09.82v3.214h-.852v-3.524a2.559 2.559 0 00-.323-1.407 1.332 1.332 0 00-1.2-.49 2.652 2.652 0 00-.355.052 1.35 1.35 0 00-.574.284 2.068 2.068 0 00-.536.7 2.865 2.865 0 00-.239 1.291v3.1h-.852zm16.238 1.678a2.71 2.71 0 00-.161-.942 2.265 2.265 0 00-.458-.762 2.152 2.152 0 00-.716-.51 2.3 2.3 0 00-.949-.187 2.3 2.3 0 00-.949.187 2.083 2.083 0 00-.71.51 2.323 2.323 0 00-.452.762 2.71 2.71 0 00-.161.942 2.71 2.71 0 00.161.942 2.323 2.323 0 00.452.762 2.083 2.083 0 00.71.51 2.3 2.3 0 00.949.187 2.3 2.3 0 00.949-.187 2.152 2.152 0 00.716-.51 2.265 2.265 0 00.458-.762 2.71 2.71 0 00.162-.938zm.929 0a3.3 3.3 0 01-.239 1.265 3.043 3.043 0 01-.665 1.007 3.027 3.027 0 01-1.013.665 3.413 3.413 0 01-1.3.239 3.378 3.378 0 01-1.284-.239 3.027 3.027 0 01-1.013-.665 3.043 3.043 0 01-.665-1.007 3.3 3.3 0 01-.239-1.265 3.3 3.3 0 01.239-1.265 3.043 3.043 0 01.665-1.007 3.027 3.027 0 011.013-.665 3.378 3.378 0 011.284-.239 3.413 3.413 0 011.3.239 3.027 3.027 0 011.013.665 3.043 3.043 0 01.665 1.007 3.3 3.3 0 01.24 1.269zm2.427-3.02q.026.245.032.484t.006.484h.026a1.987 1.987 0 01.361-.452 2.38 2.38 0 01.49-.355 2.678 2.678 0 01.574-.232 2.244 2.244 0 01.6-.084 2.2 2.2 0 011.717.613 2.517 2.517 0 01.555 1.749v3.834h-.852v-3.34a2.833 2.833 0 00-.349-1.542 1.424 1.424 0 00-1.291-.536 3.268 3.268 0 00-.361.052 1.572 1.572 0 00-.626.284 2.051 2.051 0 00-.587.7 2.68 2.68 0 00-.258 1.291v3.1h-.845V50.53q0-.245-.019-.62t-.045-.71zm11.126 2.556a1.933 1.933 0 00-.516-1.4 1.914 1.914 0 00-1.446-.536 2.061 2.061 0 00-.8.161 2.253 2.253 0 00-.678.432 2.169 2.169 0 00-.465.62 1.6 1.6 0 00-.174.723zm-4.1.7a2.592 2.592 0 00.219.852 2.251 2.251 0 00.478.691 2.247 2.247 0 00.684.458 2.087 2.087 0 00.839.168 2.153 2.153 0 001.181-.316 2.363 2.363 0 00.755-.729l.658.542a3.275 3.275 0 01-1.194.981 3.339 3.339 0 01-1.4.3 3.212 3.212 0 01-1.246-.239 2.918 2.918 0 01-.987-.665 3.149 3.149 0 01-.652-1.007 3.3 3.3 0 01-.239-1.265 3.375 3.375 0 01.232-1.265 3.062 3.062 0 01.645-1.007 2.968 2.968 0 01.968-.665 3 3 0 011.2-.239 2.944 2.944 0 011.226.245 2.721 2.721 0 01.91.652 2.79 2.79 0 01.561.955 3.484 3.484 0 01.194 1.168v.387zm8.893 1.743l1.846-5h1.027l-3.02 7.616a3.119 3.119 0 01-.691 1.11 1.649 1.649 0 01-1.207.413q-.194 0-.394-.013a1.557 1.557 0 01-.388-.073l.09-.826a1.374 1.374 0 00.645.142.911.911 0 00.71-.284 2.478 2.478 0 00.452-.8l.439-1.162-2.478-6.118h1.071zm4.414.426a.7.7 0 01-.194.484.649.649 0 01-.5.213.649.649 0 01-.5-.213.7.7 0 01-.194-.484.7.7 0 01.194-.484.649.649 0 01.5-.213.649.649 0 01.5.213.7.7 0 01.192.484zm10.378-7.009a2.005 2.005 0 00-1.768-.891 2.64 2.64 0 00-.71.1 1.955 1.955 0 00-.626.3 1.482 1.482 0 00-.445.516 1.561 1.561 0 00-.168.742 1.286 1.286 0 00.349.962 2.758 2.758 0 00.865.561 9.6 9.6 0 001.129.394 5.186 5.186 0 011.129.465 2.692 2.692 0 01.865.768 2.17 2.17 0 01.349 1.3 2.338 2.338 0 01-.265 1.117 2.567 2.567 0 01-.7.833 3.272 3.272 0 01-.968.516 3.353 3.353 0 01-1.078.181 4.085 4.085 0 01-1.594-.316 3.034 3.034 0 01-1.283-1.043l.852-.607a2.216 2.216 0 00.823.807 2.462 2.462 0 001.248.3 2.3 2.3 0 00.695-.11 2 2 0 00.624-.323 1.784 1.784 0 00.457-.523 1.387 1.387 0 00.18-.71 1.459 1.459 0 00-.2-.794 1.725 1.725 0 00-.529-.529 3.347 3.347 0 00-.749-.355q-.419-.142-.865-.284t-.865-.323a2.985 2.985 0 01-.749-.458 2.053 2.053 0 01-.529-.7 2.44 2.44 0 01-.2-1.052 2.484 2.484 0 01.252-1.149 2.382 2.382 0 01.671-.813 2.856 2.856 0 01.949-.478 3.84 3.84 0 011.084-.155 3.863 3.863 0 011.407.245 3.033 3.033 0 011.175.865zm6.041 4.621q-.323 0-.807.032a4.659 4.659 0 00-.929.155 2.046 2.046 0 00-.762.381.867.867 0 00-.316.71 1 1 0 00.123.51 1.021 1.021 0 00.329.349 1.4 1.4 0 00.458.194 2.26 2.26 0 00.51.058 1.942 1.942 0 00.807-.155 1.669 1.669 0 00.574-.42 1.677 1.677 0 00.342-.62 2.544 2.544 0 00.11-.755v-.439zm.439-.7v-.15a1.375 1.375 0 00-1.549-1.562 2.668 2.668 0 00-1.846.71l-.516-.607a3.409 3.409 0 012.556-.878 2.777 2.777 0 01.845.129 1.912 1.912 0 01.7.394 1.952 1.952 0 01.478.665 2.307 2.307 0 01.181.955v2.7q0 .349.032.729t.071.626h-.826q-.039-.219-.058-.478t-.019-.5h-.026a2.309 2.309 0 01-.884.871 2.679 2.679 0 01-1.246.265 2.739 2.739 0 01-.774-.11 1.977 1.977 0 01-.665-.336 1.706 1.706 0 01-.465-.555 1.618 1.618 0 01-.174-.768 1.655 1.655 0 01.381-1.155 2.329 2.329 0 01.955-.626 4.706 4.706 0 011.226-.258q.652-.052 1.194-.052zm5.55 3.7h-.955l-2.452-6.041h1.007l1.933 5.091h.026l1.923-5.086h.968zm8.325-3.485a1.933 1.933 0 00-.516-1.4 1.914 1.914 0 00-1.446-.536 2.062 2.062 0 00-.8.161 2.253 2.253 0 00-.678.432 2.169 2.169 0 00-.465.62 1.6 1.6 0 00-.174.723zm-4.1.7a2.592 2.592 0 00.219.852 2.251 2.251 0 00.478.691 2.247 2.247 0 00.684.458 2.087 2.087 0 00.839.168 2.153 2.153 0 001.181-.316 2.363 2.363 0 00.755-.729l.658.542a3.274 3.274 0 01-1.194.981 3.339 3.339 0 01-1.4.3 3.212 3.212 0 01-1.246-.239 2.918 2.918 0 01-.987-.665 3.149 3.149 0 01-.661-1.008 3.3 3.3 0 01-.239-1.265 3.375 3.375 0 01.232-1.265 3.062 3.062 0 01.645-1.007 2.968 2.968 0 01.968-.665 3 3 0 011.2-.239 2.944 2.944 0 011.226.245 2.721 2.721 0 01.91.652 2.79 2.79 0 01.561.955 3.484 3.484 0 01.194 1.168v.387zm13.424-2.478h-1.743v3.563a1.934 1.934 0 00.065.549.774.774 0 00.181.329.623.623 0 00.278.161 1.314 1.314 0 00.355.045 1.685 1.685 0 00.452-.065 2.092 2.092 0 00.426-.168l.039.787a2.736 2.736 0 01-1.149.219 2.15 2.15 0 01-.51-.065 1.2 1.2 0 01-.492-.242 1.351 1.351 0 01-.361-.49 1.97 1.97 0 01-.139-.81v-3.809h-1.278v-.774h1.278v-1.7h.852v1.7h1.743zm1.226-4.492h.852v4.685h.026a1.987 1.987 0 01.361-.452 2.38 2.38 0 01.49-.355 2.678 2.678 0 01.574-.232 2.244 2.244 0 01.6-.084 2.2 2.2 0 011.717.613 2.517 2.517 0 01.555 1.749v3.834h-.852v-3.339a2.833 2.833 0 00-.349-1.542 1.424 1.424 0 00-1.291-.536 3.268 3.268 0 00-.361.052 1.573 1.573 0 00-.626.284 2.051 2.051 0 00-.587.7 2.68 2.68 0 00-.258 1.291v3.1h-.852zm11.94 6.273a1.933 1.933 0 00-.516-1.4 1.914 1.914 0 00-1.446-.536 2.061 2.061 0 00-.8.161 2.252 2.252 0 00-.678.432 2.169 2.169 0 00-.465.62 1.6 1.6 0 00-.174.723zm-4.1.7a2.592 2.592 0 00.219.852 2.251 2.251 0 00.478.691 2.247 2.247 0 00.684.458 2.087 2.087 0 00.839.168 2.153 2.153 0 001.181-.316 2.363 2.363 0 00.755-.729l.658.542a3.275 3.275 0 01-1.194.981 3.339 3.339 0 01-1.4.3 3.212 3.212 0 01-1.246-.239 2.918 2.918 0 01-.987-.665 3.149 3.149 0 01-.652-1.007 3.3 3.3 0 01-.239-1.265 3.375 3.375 0 01.232-1.265 3.062 3.062 0 01.645-1.007 2.968 2.968 0 01.968-.665 3 3 0 011.2-.239 2.944 2.944 0 011.226.245 2.721 2.721 0 01.91.652 2.79 2.79 0 01.561.955 3.484 3.484 0 01.194 1.168v.387zm15.812-.232a2.709 2.709 0 00-.161-.942 2.265 2.265 0 00-.458-.762 2.152 2.152 0 00-.716-.51 2.3 2.3 0 00-.949-.187 2.443 2.443 0 00-.968.187 2.391 2.391 0 00-.762.51 2.306 2.306 0 00-.5.762 2.45 2.45 0 00-.181.942 2.45 2.45 0 00.181.942 2.306 2.306 0 00.5.762 2.391 2.391 0 00.762.51 2.443 2.443 0 00.968.187 2.3 2.3 0 00.949-.187 2.152 2.152 0 00.716-.51 2.265 2.265 0 00.458-.762 2.709 2.709 0 00.149-.941zm-5.512-3.02h.852v1.007h.026a2.216 2.216 0 01.49-.529 3.045 3.045 0 01.594-.361 2.84 2.84 0 01.639-.207 3.257 3.257 0 01.626-.065 3.414 3.414 0 011.3.239 3.027 3.027 0 011.013.665 3.043 3.043 0 01.665 1.007 3.3 3.3 0 01.239 1.265 3.3 3.3 0 01-.239 1.265 3.043 3.043 0 01-.665 1.007 3.027 3.027 0 01-1.013.665 3.414 3.414 0 01-1.3.239 3.257 3.257 0 01-.626-.065 2.84 2.84 0 01-.639-.207 3.045 3.045 0 01-.594-.361 2.216 2.216 0 01-.49-.529h-.042v4.724h-.852zm9 6.041h-.864v-9.757h.852zm5.536-3.007q-.323 0-.807.032a4.66 4.66 0 00-.929.155 2.046 2.046 0 00-.762.381.867.867 0 00-.316.71 1 1 0 00.123.51 1.021 1.021 0 00.329.349 1.4 1.4 0 00.458.194 2.26 2.26 0 00.51.058 1.941 1.941 0 00.807-.155 1.669 1.669 0 00.574-.42 1.677 1.677 0 00.342-.62 2.544 2.544 0 00.11-.755v-.439zm.439-.7v-.15a1.375 1.375 0 00-1.549-1.562 2.668 2.668 0 00-1.846.71l-.516-.607a3.409 3.409 0 012.556-.878 2.777 2.777 0 01.845.129 1.912 1.912 0 01.7.394 1.952 1.952 0 01.478.665 2.307 2.307 0 01.181.955v2.7q0 .349.032.729t.071.626h-.826q-.039-.219-.058-.478t-.019-.5h-.026a2.309 2.309 0 01-.884.871 2.679 2.679 0 01-1.246.265 2.739 2.739 0 01-.774-.11 1.976 1.976 0 01-.665-.336 1.706 1.706 0 01-.465-.555 1.618 1.618 0 01-.174-.768 1.655 1.655 0 01.381-1.155 2.329 2.329 0 01.955-.626 4.706 4.706 0 011.226-.258q.652-.052 1.194-.052zm3.7-2.336q.026.245.032.484t.006.484h.026a1.987 1.987 0 01.361-.452 2.38 2.38 0 01.49-.355 2.677 2.677 0 01.574-.232 2.244 2.244 0 01.6-.084 2.2 2.2 0 011.717.613 2.517 2.517 0 01.555 1.749v3.834h-.852v-3.341a2.833 2.833 0 00-.348-1.542 1.424 1.424 0 00-1.291-.536 3.268 3.268 0 00-.361.052 1.572 1.572 0 00-.626.284 2.051 2.051 0 00-.587.7 2.68 2.68 0 00-.258 1.291v3.1h-.852V50.53q0-.245-.019-.62t-.045-.71zm11.131 2.558a1.933 1.933 0 00-.516-1.4 1.914 1.914 0 00-1.446-.536 2.062 2.062 0 00-.8.161 2.252 2.252 0 00-.678.432 2.169 2.169 0 00-.465.62 1.6 1.6 0 00-.174.723zm-4.1.7a2.592 2.592 0 00.219.852 2.251 2.251 0 00.478.691 2.247 2.247 0 00.684.458 2.087 2.087 0 00.839.168 2.153 2.153 0 001.181-.316 2.363 2.363 0 00.755-.729l.658.542a3.274 3.274 0 01-1.194.981 3.339 3.339 0 01-1.4.3 3.213 3.213 0 01-1.246-.239 2.918 2.918 0 01-.987-.665 3.149 3.149 0 01-.657-1.015 3.3 3.3 0 01-.239-1.265 3.375 3.375 0 01.232-1.265 3.063 3.063 0 01.645-1.007 2.968 2.968 0 01.968-.665 3 3 0 011.2-.239 2.944 2.944 0 011.226.245 2.721 2.721 0 01.91.652 2.79 2.79 0 01.561.955 3.484 3.484 0 01.194 1.168v.387zm9.771-2.478h-1.743v3.563a1.934 1.934 0 00.065.549.774.774 0 00.181.329.623.623 0 00.278.161 1.314 1.314 0 00.355.045 1.685 1.685 0 00.452-.065 2.092 2.092 0 00.426-.168l.039.787a2.736 2.736 0 01-1.149.219 2.15 2.15 0 01-.51-.065 1.2 1.2 0 01-.484-.245 1.35 1.35 0 01-.361-.49 1.97 1.97 0 01-.142-.813v-3.81h-1.278v-.774h1.278v-1.7h.852v1.7h1.743zm2.788 4.647a.7.7 0 01-.194.484.649.649 0 01-.5.213.649.649 0 01-.5-.213.7.7 0 01-.194-.484.7.7 0 01.194-.484.649.649 0 01.5-.213.649.649 0 01.5.213.7.7 0 01.189.481z"></path></svg>